<?xml version="1.0" encoding="UTF-8"?>
<svg version="1.1" xmlns="http://www.w3.org/2000/svg" width="1280" height="1280">
<path d="M0 0 C422.4 0 844.8 0 1280 0 C1280 422.4 1280 844.8 1280 1280 C857.6 1280 435.2 1280 0 1280 C0 857.6 0 435.2 0 0 Z " fill="#000100" transform="translate(0,0)"/>
<path d="M0 0 C0.82422586 5.02302512 1.14111764 9.88569912 1.12025452 14.97898865 C1.12153615 16.13952187 1.12153615 16.13952187 1.12284368 17.32350022 C1.12448263 19.89985425 1.11900322 22.47614226 1.11352539 25.05249023 C1.11324315 26.90571593 1.11340197 28.75894173 1.1139679 30.61216736 C1.11425443 35.63226373 1.10838088 40.65233613 1.10139394 45.67242694 C1.09513652 50.92281647 1.09455471 56.17320656 1.09336853 61.42359924 C1.09026226 71.36109184 1.08205836 81.29857341 1.07201904 91.23606116 C1.06083604 102.55160525 1.05534194 113.86714988 1.05032361 125.18269813 C1.03987516 148.45513819 1.02228935 171.72756848 1 195 C1.9590625 195.4640625 1.9590625 195.4640625 2.9375 195.9375 C5 197 5 197 6 198 C6.46660959 203.69263699 6.46660959 203.69263699 6 206 C5.33637451 206.53351074 4.67274902 207.06702148 3.98901367 207.61669922 C1.17238747 210.99167221 1.56903739 214.05827002 1.75 218.23828125 C1.76514648 219.03727341 1.78029297 219.83626556 1.79589844 220.6594696 C1.86108109 224.06852639 1.97329941 227.47564309 2.08203125 230.88354492 C2.15476119 233.37669851 2.20289524 235.86953231 2.25 238.36328125 C2.28319336 239.12393387 2.31638672 239.88458649 2.35058594 240.66828918 C2.45230182 246.26743088 1.19136854 249.38230732 -2 254 C-6.95500138 258.48309648 -9.92377129 259.29961968 -16.4609375 259.21484375 C-21.30249648 258.80517337 -24.07045726 257.00491107 -27.3125 253.5 C-30.94048535 248.12520688 -30.47402755 242.26506416 -30 236 C-29.24480256 233.11532141 -28.25567735 230.72063427 -27 228 C-25.19969878 230.70045182 -24.06622934 233.06677881 -22.875 236.0625 C-22.52179688 236.94035156 -22.16859375 237.81820312 -21.8046875 238.72265625 C-21 241 -21 241 -21 243 C-21.99 243 -22.98 243 -24 243 C-23.82807189 247.4701308 -23.65378517 249.39182775 -20.3125 252.5 C-16.46153507 254.24383317 -14.98362622 254.27137007 -11 253 C-7.24374613 251.20724247 -5.40811337 249.91747394 -4 246 C-3.8311949 243.13721069 -3.76725465 240.37564046 -3.8046875 237.515625 C-3.8075174 236.70003113 -3.81034729 235.88443726 -3.81326294 235.04412842 C-3.82443442 232.44593472 -3.84953325 229.84808905 -3.875 227.25 C-3.88503373 225.48568207 -3.89415889 223.72135872 -3.90234375 221.95703125 C-3.92436381 217.63788727 -3.95887267 213.31900259 -4 209 C-4.99 208.67 -5.98 208.34 -7 208 C-9.32749345 204.50875983 -9.50299316 203.10777749 -9 199 C-8.34296963 198.42613178 -7.68593925 197.85226357 -7.00899887 197.2610054 C-4.19167922 194.09028439 -4.49285377 191.96308947 -4.48101807 187.76141357 C-4.47351681 187.03112355 -4.46601556 186.30083354 -4.458287 185.54841352 C-4.4379826 183.10067229 -4.44611745 180.65385497 -4.45410156 178.20605469 C-4.44536801 176.45178306 -4.43488299 174.69751941 -4.42277527 172.94326782 C-4.39486791 168.17913067 -4.39151163 163.41525283 -4.39249516 158.6510458 C-4.38937012 153.67284242 -4.36376046 148.69475654 -4.34051514 143.71661377 C-4.2999202 134.28901806 -4.27960622 124.86149158 -4.26654124 115.43382192 C-4.25068303 104.70110212 -4.21227238 93.96850033 -4.17194796 83.2358489 C-4.0895012 61.1572715 -4.03543893 39.0786996 -4 17 C-4.6587915 17.35368652 -5.31758301 17.70737305 -5.99633789 18.07177734 C-6.87539795 18.5302002 -7.75445801 18.98862305 -8.66015625 19.4609375 C-9.52519775 19.91774902 -10.39023926 20.37456055 -11.28149414 20.84521484 C-14.10541945 22.04478078 -16.39272749 22.4117904 -19.4375 22.625 C-25.25114028 23.47299241 -27.86435886 26.38284943 -31.73852539 30.61425781 C-41.27580727 40.89887029 -55.0566385 47.41023363 -68.9375 48.8125 C-73.25679444 49.30662341 -73.25679444 49.30662341 -76.796875 51.578125 C-77.74178472 52.92647932 -78.64073788 54.30797485 -79.49609375 55.71484375 C-87.07600601 67.23237277 -101.22551124 74.10625196 -114 78 C-117.21585301 78.54269811 -120.3874525 78.97456551 -123.63671875 79.25 C-124.41660156 79.4975 -125.19648437 79.745 -126 80 C-127.17305493 82.27694734 -127.17305493 82.27694734 -128 85 C-136.81867298 98.05005419 -150.00955838 107.72462406 -165.1015625 112.27734375 C-172.94916337 114.47383682 -172.94916337 114.47383682 -178.96484375 119.625 C-179.8750131 121.65111612 -180.73357925 123.70109141 -181.54296875 125.76953125 C-186.13757242 135.95649435 -195.95839006 143.64736299 -206 148 C-209.96392189 149.25652256 -213.91309484 150.23914 -218 151 C-217.6803125 151.55042969 -217.360625 152.10085938 -217.03125 152.66796875 C-215.12310452 156.98297956 -215.2629206 161.39488444 -216 166 C-217.5249503 168.96307069 -219.43461511 170.90208524 -222 173 C-222.51820313 173.433125 -223.03640625 173.86625 -223.5703125 174.3125 C-228.61416801 177.82126905 -234.06324091 177.5545824 -240 177 C-241.34148198 176.70114388 -242.67933182 176.38042667 -244 176 C-243.39671875 176.84820313 -242.7934375 177.69640625 -242.171875 178.5703125 C-233.24384194 191.50133806 -229.44122349 204.23098178 -231 220 C-232.0234375 222.4609375 -232.0234375 222.4609375 -233 224 C-235.12890625 224.328125 -235.12890625 224.328125 -238 224 C-240.16872875 222.30704889 -242.01442404 220.68538758 -243.9375 218.75 C-250.39809252 212.39777871 -256.66922394 207.09024602 -266.125 206.6875 C-270.05368173 207.00432917 -271.20358007 207.4186893 -274 210 C-274.66 210 -275.32 210 -276 210 C-276.67561748 211.6630584 -277.33933281 213.33094605 -278 215 C-278.53625 216.093125 -279.0725 217.18625 -279.625 218.3125 C-282.85405643 226.91785343 -281.85382699 238.43851903 -279 247 C-278.67 247.99 -278.34 248.98 -278 250 C-275.35318212 250.80529582 -272.82466794 251.44598119 -270.125 252 C-261.28511414 253.83322765 -261.28511414 253.83322765 -259 257 C-260.25805377 261.50802601 -261.90407165 264.4912812 -265 268 C-260.77203658 275.68720622 -253.13125554 281.78531758 -245 285 C-242.26427415 285.69907414 -242.26427415 285.69907414 -240 286 C-239.72929688 285.26652344 -239.45859375 284.53304688 -239.1796875 283.77734375 C-233.83719768 271.1994952 -221.76321167 258.3004429 -211 250 C-210.47567383 249.58121582 -209.95134766 249.16243164 -209.41113281 248.73095703 C-200.94385089 241.99572482 -193.31489954 237.43829985 -183 234 C-182.67 233.67 -182.34 233.34 -182 233 C-179.66702567 232.95907063 -177.33294775 232.95758277 -175 233 C-175.5691351 237.46234913 -177.27898348 240.42103893 -179.6875 244.1875 C-185.54311823 253.40867745 -190.96156596 262.60666959 -195.625 272.5 C-196.0890625 273.46808594 -196.553125 274.43617188 -197.03125 275.43359375 C-205.49440418 293.24446906 -209.52225619 309.67873741 -203.13671875 328.9921875 C-201.58685987 333.09318865 -199.94641897 337.07151336 -198 341 C-197.59652344 341.84433594 -197.19304687 342.68867187 -196.77734375 343.55859375 C-194.95400372 347.31121712 -193.16134911 350.7714221 -190.75 354.1875 C-188.6929471 357.49347787 -188.30782383 360.15220208 -188 364 C-193.92402395 363.61043833 -198.61839572 362.69080214 -204 360 C-204.68707031 359.67257812 -205.37414062 359.34515625 -206.08203125 359.0078125 C-223.82684901 349.9955583 -234.65874054 332.8849266 -242 315 C-242 314.34 -242 313.68 -242 313 C-250.11438458 311.68487538 -250.11438458 311.68487538 -258 313 C-259.44706601 315.29439744 -260.14470098 317.38658633 -261 320 C-263.2734375 320.26171875 -263.2734375 320.26171875 -266 320 C-267.9140625 318.20703125 -267.9140625 318.20703125 -269.625 315.8125 C-270.19476562 315.03519531 -270.76453125 314.25789063 -271.3515625 313.45703125 C-273 311 -273 311 -274.30078125 308.390625 C-276.60129419 305.15404127 -278.89237347 304.38379574 -282.5625 302.9375 C-283.18294189 302.6885498 -283.80338379 302.43959961 -284.44262695 302.18310547 C-286.29054036 301.4439401 -288.14521345 300.7217453 -290 300 C-291.00289062 299.58105469 -292.00578125 299.16210938 -293.0390625 298.73046875 C-297.85738309 296.63219567 -297.85738309 296.63219567 -303 296 C-303.94891688 297.77733637 -304.89732877 299.5549438 -305.84350586 301.33374023 C-306.6639927 302.87595313 -307.48645903 304.41711434 -308.31079102 305.95727539 C-310.23142307 309.56660429 -312.11318611 313.17148438 -313.8046875 316.89453125 C-318.43988692 326.95224865 -324.41459727 335.66397677 -335 340 C-337.875 340.1875 -337.875 340.1875 -340 340 C-339.9278125 338.80246094 -339.855625 337.60492187 -339.78125 336.37109375 C-338.49688516 318.17137379 -338.49688516 318.17137379 -340.01171875 300.078125 C-340.8306716 295.03002306 -341.12664993 290.14344967 -341.0625 285.0390625 C-340.7646394 263.17970297 -340.7646394 263.17970297 -352 245 C-353.05398116 243.36693494 -354.06396581 241.70341357 -355 240 C-355.33902344 239.38898438 -355.67804687 238.77796875 -356.02734375 238.1484375 C-361.6017024 227.28681164 -364.50237857 215.8737961 -367 204 C-367.34417969 202.41251953 -367.34417969 202.41251953 -367.6953125 200.79296875 C-369.64727092 190.30462877 -369.18595087 179.62351633 -369 169 C-379.12656851 167.88819218 -388.89180846 167.44489361 -399 169 C-402.00252422 169.12797644 -405.00104746 169.2188077 -408 169 C-409 168 -409 168 -409.23828125 165.33984375 C-408.57247807 156.00768443 -401.5545803 147.00042991 -396.1875 139.625 C-395.70756592 138.96443604 -395.22763184 138.30387207 -394.7331543 137.62329102 C-393.54357596 136.03950543 -392.27804114 134.51330244 -391 133 C-390.34 133 -389.68 133 -389 133 C-388.67 132.01 -388.34 131.02 -388 130 C-387.34 130 -386.68 130 -386 130 C-386 129.34 -386 128.68 -386 128 C-379.83812005 121.64606145 -372.88486671 116.83012887 -364.875 113.1875 C-359.13238576 110.38779655 -356.61201409 107.73576972 -354 102 C-353.22944795 100.49985548 -352.45862447 98.99985035 -351.6875 97.5 C-351.130625 96.345 -350.57375 95.19 -350 94 C-350.94939453 93.72542969 -350.94939453 93.72542969 -351.91796875 93.4453125 C-354 92 -354 92 -354.80078125 88.8671875 C-354.98153826 87.53780338 -355.15138471 86.20690732 -355.3125 84.875 C-357.40148167 71.3174319 -363.62162424 56.87593713 -372.9375 46.6875 C-375 44 -375 44 -374.875 41.1875 C-374 39 -374 39 -373 38 C-355.09583542 36.34499319 -335.50702691 39.51308888 -320.375 49.78125 C-318.03858887 51.1970106 -318.03858887 51.1970106 -315.26171875 51.0703125 C-310.50872697 49.51064813 -306.85169344 46.77683212 -302.8125 43.875 C-301.1048627 42.67999435 -299.39653428 41.48597566 -297.6875 40.29296875 C-296.8728125 39.71981934 -296.058125 39.14666992 -295.21875 38.55615234 C-282.04267822 29.31492418 -268.06571603 22.6943628 -253.1875 16.6875 C-252.15028809 16.26686279 -251.11307617 15.84622559 -250.04443359 15.4128418 C-244.22765652 13.10884189 -238.44386011 11.19195868 -232.38623047 9.62792969 C-230.51747184 9.13617123 -228.67215063 8.55519508 -226.83984375 7.94140625 C-223.12826824 6.71102152 -219.36890375 5.82263191 -215.5625 4.9375 C-214.83740234 4.76412109 -214.11230469 4.59074219 -213.36523438 4.41210938 C-206.56819405 2.81819426 -199.93668112 1.84301237 -192.9375 1.75 C-191.77089844 1.72421875 -190.60429688 1.6984375 -189.40234375 1.671875 C-184.77579504 2.11806339 -181.6730198 3.56446394 -178.15625 6.58203125 C-176.28167027 10.50218278 -176.47123552 14.3966059 -176.5 18.6875 C-176.50281982 19.61852539 -176.50563965 20.54955078 -176.50854492 21.50878906 C-176.71768423 30.62384184 -178.94707487 38.4795635 -182 47 C-182.48129691 48.60352882 -182.96090138 50.20756849 -183.4375 51.8125 C-186.49996785 60.5915745 -190.22402316 67.7104659 -197.11328125 73.99609375 C-199.84573832 76.89826865 -201.28344932 80.15037044 -202.90625 83.7578125 C-204 86 -204 86 -206.25 88.5625 C-208.171815 91.23931375 -208.21282418 92.13385387 -208.375 95.3125 C-208.62888814 98.94854081 -209.33770247 100.9188973 -211.6015625 103.76953125 C-212.14506348 104.45974365 -212.68856445 105.14995605 -213.24853516 105.86108398 C-215.54856615 108.66991749 -217.86193422 111.4659434 -220.20239258 114.24121094 C-230.51978156 125.83908392 -230.51978156 125.83908392 -236 140 C-231.29236665 136.38500254 -226.63749623 132.71930803 -222.0625 128.9375 C-197.95452781 109.16090443 -172.57916738 90.86514456 -145.87109375 74.75 C-142.85352127 72.91071773 -139.8968695 70.993955 -136.9375 69.0625 C-117.69406116 56.62105508 -98.0195917 45.10412315 -77.73632812 34.44384766 C-75.36180143 33.19090772 -72.99806296 31.9214215 -70.640625 30.63671875 C-61.59713422 25.71441481 -52.35799314 21.28469331 -43 17 C-42.16001465 16.61465088 -41.3200293 16.22930176 -40.45458984 15.83227539 C-33.71001128 12.75091924 -26.92771 9.76301923 -20.125 6.8125 C-19.11953125 6.37486328 -18.1140625 5.93722656 -17.078125 5.48632812 C-11.53795272 3.07995356 -11.53795272 3.07995356 -9 2 C-8.15163574 1.62447998 -7.30327148 1.24895996 -6.42919922 0.86206055 C-4 0 -4 0 0 0 Z " fill="#FCFCFB" transform="translate(880,456)"/>
<path d="M0 0 C0.33 0 0.66 0 1 0 C1.00054477 0.91367718 1.00108953 1.82735435 1.00165081 2.76871872 C1.01660834 24.98515204 1.05901347 47.20138444 1.13209057 69.41770554 C1.16676581 80.16130603 1.19209941 90.90477787 1.19555664 101.6484375 C1.19859301 111.01099081 1.21903937 120.37331516 1.26052457 129.73578 C1.28188601 134.6946816 1.29443907 139.65325744 1.28615379 144.61220551 C1.27863351 149.27776858 1.2943536 153.94267052 1.32806015 158.60811234 C1.33631793 160.32217332 1.33601462 162.03629976 1.32659721 163.75035477 C1.31502234 166.08815911 1.33401731 168.42377955 1.36076355 170.76141357 C1.36352893 172.07035961 1.36629431 173.37930565 1.36914349 174.72791672 C1.70123719 178.18067651 1.70123719 178.18067651 4.50064564 180.32741165 C5.32543258 180.87936581 6.15021952 181.43131996 7 182 C7.62890625 184 7.62890625 184 7.5625 186 C7.56443359 186.99 7.56443359 186.99 7.56640625 188 C7 190 7 190 4.98022461 191.61010742 C2.17801958 194.99203136 2.56912106 198.06020274 2.75 202.23828125 C2.76514648 203.03727341 2.78029297 203.83626556 2.79589844 204.6594696 C2.86108109 208.06852639 2.97329941 211.47564309 3.08203125 214.88354492 C3.15476119 217.37669851 3.20289524 219.86953231 3.25 222.36328125 C3.28319336 223.12393387 3.31638672 223.88458649 3.35058594 224.66828918 C3.45230182 230.26743088 2.19136854 233.38230732 -1 238 C-5.95500138 242.48309648 -8.92377129 243.29961968 -15.4609375 243.21484375 C-20.30249648 242.80517337 -23.07045726 241.00491107 -26.3125 237.5 C-29.94048535 232.12520688 -29.47402755 226.26506416 -29 220 C-28.24480256 217.11532141 -27.25567735 214.72063427 -26 212 C-24.19969878 214.70045182 -23.06622934 217.06677881 -21.875 220.0625 C-21.52179687 220.94035156 -21.16859375 221.81820312 -20.8046875 222.72265625 C-20 225 -20 225 -20 227 C-20.99 227 -21.98 227 -23 227 C-22.82807189 231.4701308 -22.65378517 233.39182775 -19.3125 236.5 C-15.46153507 238.24383317 -13.98362622 238.27137007 -10 237 C-6.24374613 235.20724247 -4.40811337 233.91747394 -3 230 C-2.8311949 227.13721069 -2.76725465 224.37564046 -2.8046875 221.515625 C-2.80893234 220.29223419 -2.80893234 220.29223419 -2.81326294 219.04412842 C-2.82443442 216.44593472 -2.84953325 213.84808905 -2.875 211.25 C-2.88503373 209.48568207 -2.89415889 207.72135872 -2.90234375 205.95703125 C-2.92436381 201.63788727 -2.95887267 197.31900259 -3 193 C-3.99 192.67 -4.98 192.34 -6 192 C-7.37407134 189.14615953 -6.95284958 187.8365452 -6.0625 184.75 C-5.5365625 183.38875 -5.5365625 183.38875 -5 182 C-4.67 182 -4.34 182 -4 182 C-3.34 183.98 -2.68 185.96 -2 188 C-0.68 187.67 0.64 187.34 2 187 C2 185.68 2 184.36 2 183 C0.68 182.67 -0.64 182.34 -2 182 C-2 181.34 -2 180.68 -2 180 C-2.00430368 177.7015886 -2.00883304 175.40317762 -2.01345825 173.10476685 C-2.05403623 152.46996401 -2.08405887 131.83516831 -2.10362434 111.20033455 C-2.11394723 100.59594252 -2.1280317 89.99158008 -2.15087891 79.38720703 C-2.17079288 70.1397423 -2.18371142 60.892299 -2.18817699 51.64481342 C-2.19078712 46.74860598 -2.19693344 41.85245992 -2.21146011 36.95627213 C-2.22501225 32.35165784 -2.22922744 27.74713035 -2.22621536 23.14249802 C-2.22676653 21.45098652 -2.23075725 19.75947218 -2.23841095 18.06797791 C-2.24833697 15.76161142 -2.24597758 13.45557428 -2.24050903 11.14920044 C-2.24235262 9.85760073 -2.24419621 8.56600101 -2.24609566 7.23526192 C-2.01589718 4.20899007 -1.60450359 2.53010691 0 0 Z " fill="#F4F5F3" transform="translate(879,472)"/>
<path d="M0 0 C3.72437556 0.60738024 6.71975005 1.70915345 10.125 3.3125 C18.41540568 6.86553101 27.15941766 8.42537013 36 10 C37.07765625 10.19980469 38.1553125 10.39960937 39.265625 10.60546875 C44.82319846 11.19261825 50.3537945 11.10376673 55.9375 11.0625 C57.67870117 11.05573242 57.67870117 11.05573242 59.45507812 11.04882812 C62.30343934 11.03710647 65.15169222 11.0206976 68 11 C66.52532359 14.79772032 64.84085465 18.15862422 62.6875 21.625 C62.11386719 22.56601562 61.54023437 23.50703125 60.94921875 24.4765625 C58.24219487 27.98104632 55.78913065 29.67568629 51.4140625 30.46875 C39.33580636 30.6040806 28.13029863 26.4515452 18 20 C18 19.34 18 18.68 18 18 C17.195625 17.6596875 17.195625 17.6596875 16.375 17.3125 C9.35322993 13.43204812 4.66830923 7.39819031 0 1 C0 0.67 0 0.34 0 0 Z " fill="#080909" transform="translate(606,521)"/>
<path d="M0 0 C0.82153004 5.01055422 1.14118022 9.8604119 1.12025452 14.94102478 C1.12110894 15.71063005 1.12196337 16.48023531 1.12284368 17.27316195 C1.12448252 19.83569658 1.11900341 22.39816482 1.11352539 24.96069336 C1.11324315 26.80406696 1.11340198 28.64744067 1.1139679 30.49081421 C1.11425442 35.48405198 1.10838103 40.47726566 1.10139394 45.47049785 C1.09513636 50.69286015 1.0945547 55.91522303 1.09336853 61.1375885 C1.09026231 71.02195717 1.08205847 80.90631476 1.07201904 90.79067856 C1.0608359 102.04576431 1.0553419 113.30085059 1.05032361 124.55594051 C1.03987527 147.70396648 1.02228955 170.85198262 1 194 C0.67 194 0.34 194 0 194 C-0.33 136.25 -0.66 78.5 -1 19 C-2.89070608 20.89070608 -2.12624339 24.19591864 -2.12698364 26.70578003 C-2.12932363 27.76969379 -2.12932363 27.76969379 -2.13171089 28.85510075 C-2.13572337 31.24961258 -2.13253027 33.64406184 -2.12939453 36.03857422 C-2.13074849 37.74811846 -2.13252839 39.45766242 -2.13470459 41.16720581 C-2.13928029 45.82423153 -2.13748862 50.4812352 -2.1343255 55.13826132 C-2.13180179 60.00291092 -2.13413955 64.86755858 -2.13571167 69.73220825 C-2.13753368 77.90529725 -2.1351266 86.07837722 -2.13037109 94.25146484 C-2.12493205 103.70868525 -2.12668841 113.16588409 -2.1321975 122.62310398 C-2.13673208 130.73096142 -2.13737737 138.83881235 -2.13475883 146.94667065 C-2.13319749 151.7942122 -2.13299832 156.64174361 -2.13629532 161.48928452 C-2.13917889 166.04790636 -2.13718933 170.60650035 -2.13140106 175.16511917 C-2.13007593 176.84091902 -2.13046342 178.51672121 -2.13266373 180.19252014 C-2.13538497 182.47512957 -2.13198204 184.75764903 -2.12698364 187.04025269 C-2.12660662 188.31932432 -2.12622959 189.59839596 -2.12584114 190.91622734 C-2.14117479 194.03861491 -2.14117479 194.03861491 -1 197 C-1.33 197.33 -1.66 197.66 -2 198 C-1.01 198.33 -0.02 198.66 1 199 C1.8125 200.9375 1.8125 200.9375 2 203 C1.01 203.99 1.01 203.99 0 205 C-2 204.9375 -2 204.9375 -4 204 C-5.25 201.4375 -5.25 201.4375 -6 199 C-6.66 200.98 -7.32 202.96 -8 205 C-8.33 205 -8.66 205 -9 205 C-9.25 202.25 -9.25 202.25 -9 199 C-8.34554775 198.4222646 -7.6910955 197.84452919 -7.01681137 197.24928665 C-4.18383875 194.08976088 -4.49285591 191.96384684 -4.48101807 187.76141357 C-4.47351681 187.03112355 -4.46601556 186.30083354 -4.458287 185.54841352 C-4.4379826 183.10067229 -4.44611745 180.65385497 -4.45410156 178.20605469 C-4.44536801 176.45178306 -4.43488299 174.69751941 -4.42277527 172.94326782 C-4.39486791 168.17913067 -4.39151163 163.41525283 -4.39249516 158.6510458 C-4.38937012 153.67284242 -4.36376046 148.69475654 -4.34051514 143.71661377 C-4.2999202 134.28901806 -4.27960622 124.86149158 -4.26654124 115.43382192 C-4.25068303 104.70110212 -4.21227238 93.96850033 -4.17194796 83.2358489 C-4.0895012 61.1572715 -4.03543893 39.0786996 -4 17 C-4.68707031 17.34933594 -5.37414062 17.69867188 -6.08203125 18.05859375 C-7.43361328 18.74115234 -7.43361328 18.74115234 -8.8125 19.4375 C-10.15248047 20.11619141 -10.15248047 20.11619141 -11.51953125 20.80859375 C-14.8987736 22.43169441 -17.47717671 23.12332497 -21.1875 23.0625 C-23.0746875 23.0315625 -23.0746875 23.0315625 -25 23 C-24.34 22.34 -23.68 21.68 -23 21 C-23.20625 20.38125 -23.4125 19.7625 -23.625 19.125 C-23.810625 18.073125 -23.810625 18.073125 -24 17 C-22.0625 14.875 -22.0625 14.875 -20 13 C-20 12.34 -20 11.68 -20 11 C-19.34 11 -18.68 11 -18 11 C-18.33 9.35 -18.66 7.7 -19 6 C-17.25197854 5.18325204 -15.50149811 4.37176549 -13.75 3.5625 C-12.77546875 3.11003906 -11.8009375 2.65757812 -10.796875 2.19140625 C-6.85932697 0.51409878 -4.31983261 0 0 0 Z " fill="#CDCECC" transform="translate(880,456)"/>
<path d="M0 0 C0.33 0 0.66 0 1 0 C1 59.07 1 118.14 1 179 C0.01 179.33 -0.98 179.66 -2 180 C-2.04669008 157.12154248 -2.08197416 134.2430928 -2.10362434 111.36459732 C-2.11394342 100.74207213 -2.12801582 90.11957652 -2.15087891 79.49707031 C-2.17079344 70.24009804 -2.18371184 60.98314719 -2.18817699 51.72615409 C-2.19078765 46.82320998 -2.19693697 41.92032715 -2.21146011 37.01740265 C-2.22501343 32.40460715 -2.2292272 27.7918983 -2.22621536 23.17908478 C-2.22676653 21.48434987 -2.23075736 19.78961213 -2.23841095 18.09489441 C-2.24833703 15.78404205 -2.24597751 13.47351839 -2.24050903 11.16265869 C-2.24235262 9.86846134 -2.24419621 8.57426399 -2.24609566 7.24084854 C-2.01606404 4.21154831 -1.60662487 2.53207989 0 0 Z " fill="#FBFBFA" transform="translate(879,472)"/>
<path d="M0 0 C3.27652693 2.62873221 3.98041481 5.56063172 5.1875 9.5 C7.642705 16.69449464 11.17790554 22.10419862 16 28 C16.74121094 28.92683594 17.48242188 29.85367188 18.24609375 30.80859375 C18.82488281 31.53175781 19.40367187 32.25492188 20 33 C19.34 33.66 18.68 34.32 18 35 C16.68 35 15.36 35 14 35 C14 36.65 14 38.3 14 40 C7.61049841 39.83616663 3.50476036 36.16076048 -1 32 C-4.31795936 28.37819821 -5.8662158 25.20047332 -7.25 20.5 C-7.58515625 19.3965625 -7.9203125 18.293125 -8.265625 17.15625 C-8.93213042 14.29169479 -9.15265367 11.92222744 -9 9 C-7.49440461 10.96382007 -6.10868317 12.78263366 -5 15 C-4.34 14.67 -3.68 14.34 -3 14 C-3.09539063 13.39671875 -3.19078125 12.7934375 -3.2890625 12.171875 C-3.39992188 11.37265625 -3.51078125 10.5734375 -3.625 9.75 C-3.74101563 8.96109375 -3.85703125 8.1721875 -3.9765625 7.359375 C-4.00319395 4.67847541 -3.36592084 3.27305911 -2 1 C-2 2.32 -2 3.64 -2 5 C-1.34 5 -0.68 5 0 5 C0 3.35 0 1.7 0 0 Z " fill="#E9E9E7" transform="translate(577,534)"/>
<path d="M0 0 C1.32 0.66 2.64 1.32 4 2 C3.28889779 7.86659324 0.23010603 12.15484096 -3 17 C-3.66 17 -4.32 17 -5 17 C-5.268125 17.59941406 -5.53625 18.19882812 -5.8125 18.81640625 C-9.6880153 25.94276498 -18.53647758 30.27467713 -26.00390625 32.6328125 C-28.2928378 33.0538684 -30.42411792 33.09670415 -32.75 33.0625 C-33.54921875 33.05347656 -34.3484375 33.04445313 -35.171875 33.03515625 C-35.77515625 33.02355469 -36.3784375 33.01195312 -37 33 C-35.48793343 29.21133881 -33.3032033 27.37150173 -30.125 24.875 C-29.13757813 24.08867188 -28.15015625 23.30234375 -27.1328125 22.4921875 C-26.6162207 22.08323242 -26.09962891 21.67427734 -25.56738281 21.25292969 C-23.01091009 19.20934432 -20.50828851 17.10224703 -18 15 C-13.05528593 10.86970942 -8.07861796 6.7821654 -3.08203125 2.71484375 C-2.02525822 1.84444345 -0.9680821 0.9680821 0 0 Z " fill="#0C0D0C" transform="translate(694,569)"/>
<path d="M0 0 C0.87205078 0.31904297 0.87205078 0.31904297 1.76171875 0.64453125 C-1.44128523 12.03298985 -14.3668569 20.61062313 -24.07421875 26.06640625 C-30.95951605 29.50055453 -37.48858926 31.93028685 -45.23828125 31.64453125 C-43.90090744 28.53407064 -42.63153219 26.89781661 -39.8515625 24.98046875 C-39.16771484 24.50303223 -38.48386719 24.0255957 -37.77929688 23.53369141 C-37.04388672 23.03401855 -36.30847656 22.5343457 -35.55078125 22.01953125 C-34.79345703 21.49536621 -34.03613281 20.97120117 -33.25585938 20.43115234 C-27.07261093 16.16759884 -20.83942061 11.97588656 -14.5625 7.8515625 C-12.50262789 6.48396233 -10.45957434 5.09017906 -8.4453125 3.65625 C-7.65511719 3.09550781 -6.86492188 2.53476562 -6.05078125 1.95703125 C-5.39722656 1.47878906 -4.74367188 1.00054688 -4.0703125 0.5078125 C-2.23828125 -0.35546875 -2.23828125 -0.35546875 0 0 Z " fill="#0C0E0C" transform="translate(747.23828125,535.35546875)"/>
<path d="M0 0 C1.32 0 2.64 0 4 0 C3.3782104 5.44065901 0.77243981 8.46789101 -3.3046875 11.9921875 C-14.04581848 19.8603108 -26.2637388 27.56066372 -40 27 C-40 26.01 -40 25.02 -40 24 C-38.12329102 22.5612793 -38.12329102 22.5612793 -35.50390625 21.07421875 C-34.55193359 20.52443359 -33.59996094 19.97464844 -32.61914062 19.40820312 C-31.10610352 18.55645508 -31.10610352 18.55645508 -29.5625 17.6875 C-27.60402645 16.56892775 -25.64697864 15.44785532 -23.69140625 14.32421875 C-22.73314941 13.77386963 -21.77489258 13.22352051 -20.78759766 12.65649414 C-17.43440802 10.66390422 -14.20841838 8.52222749 -11.00170898 6.30322266 C-7.81297524 4.22718159 -4.42448901 2.65109292 -1 1 C-0.67 0.67 -0.34 0.34 0 0 Z " fill="#0E100E" transform="translate(795,504)"/>
<path d="M0 0 C0.59985352 1.85644531 0.59985352 1.85644531 1 4 C-6.00827032 14.07545954 -19.98173993 22.70704249 -32 25 C-36.32943458 25.4919812 -40.64762059 25.80491653 -45 26 C-45 25.34 -45 24.68 -45 24 C-42.59296239 22.36962498 -40.20147799 20.88776617 -37.6875 19.4375 C-36.93146484 18.99639893 -36.17542969 18.55529785 -35.39648438 18.10083008 C-28.98625588 14.42781115 -22.40630729 11.19653807 -15.6862793 8.13256836 C-10.30256166 5.67362795 -5.13571075 2.94195487 0 0 Z " fill="#0E100E" transform="translate(849,475)"/>
<path d="M0 0 C0.66 0 1.32 0 2 0 C2 0.99 2 1.98 2 3 C2.99 3 3.98 3 5 3 C3.41991043 13.28853775 -5.70421187 23.04670158 -13.7890625 29.08203125 C-20.61423606 33.35901996 -27.89279332 36.42091381 -36 37 C-39.86754259 36.00535687 -42.44191535 35.12654791 -45 32 C-44.01 31.01 -43.02 30.02 -42 29 C-41.01 29.33 -40.02 29.66 -39 30 C-39.33 30.66 -39.66 31.32 -40 32 C-28.76747117 30.94921505 -18.4808379 28.48800119 -10.875 19.625 C-10.35679687 18.93664062 -9.83859375 18.24828125 -9.3046875 17.5390625 C-8.87414062 17.03117188 -8.44359375 16.52328125 -8 16 C-7.34 16 -6.68 16 -6 16 C-5.57074219 15.13375 -5.57074219 15.13375 -5.1328125 14.25 C-4.41523852 12.82474961 -3.68260001 11.40690221 -2.9296875 10 C-2.40761719 9.01 -2.40761719 9.01 -1.875 8 C-1.34519531 7.01 -1.34519531 7.01 -0.8046875 6 C0.24884291 3.74081852 0.24884291 3.74081852 0 0 Z " fill="#EAEAE8" transform="translate(697,570)"/>
<path d="M0 0 C0.33 0 0.66 0 1 0 C1.00634791 1.35643726 1.00634791 1.35643726 1.01282406 2.74027729 C1.11603542 24.72261958 1.22465883 46.70492929 1.33933926 68.68721485 C1.39466623 79.31758836 1.44814738 89.94796521 1.49731445 100.57836914 C1.54016271 109.84157848 1.58644235 119.10476316 1.63687855 128.36793441 C1.66347429 133.2747242 1.68832727 138.18150911 1.70907402 143.08832741 C1.72864217 147.70358884 1.75278653 152.31880336 1.78049088 156.9340229 C1.78986036 158.63077697 1.79753601 160.32754133 1.80341911 162.02431107 C1.81168202 164.33545766 1.82595923 166.64649045 1.84178162 168.95759583 C1.84823417 170.25271497 1.85468672 171.54783411 1.8613348 172.88219929 C1.85893244 176.03307089 1.85893244 176.03307089 3 179 C2.67 179.33 2.34 179.66 2 180 C2.99 180.33 3.98 180.66 5 181 C5.8125 182.9375 5.8125 182.9375 6 185 C5.01 185.99 5.01 185.99 4 187 C2 186.9375 2 186.9375 0 186 C-1.25 183.4375 -1.25 183.4375 -2 181 C-2.66 182.98 -3.32 184.96 -4 187 C-4.33 187 -4.66 187 -5 187 C-5.25 184.25 -5.25 184.25 -5 181 C-4.34554775 180.42148159 -3.6910955 179.84296318 -3.01681137 179.24691391 C-0.1895789 176.09711613 -0.49289221 173.99094954 -0.48101807 169.79937744 C-0.46976619 168.71006774 -0.46976619 168.71006774 -0.458287 167.59875178 C-0.43798347 165.16482843 -0.44611726 162.7318343 -0.45410156 160.29785156 C-0.44536796 158.55343198 -0.43488292 156.8090204 -0.42277527 155.06462097 C-0.3948685 150.32734211 -0.39151161 145.59032403 -0.39249516 140.85297489 C-0.38937007 135.90279839 -0.36376031 130.95274005 -0.34051514 126.00262451 C-0.29992059 116.62815276 -0.27960631 107.25375064 -0.26654124 97.87920451 C-0.25068289 87.2069427 -0.21227219 76.53479957 -0.17194796 65.86260653 C-0.08950173 43.90844347 -0.03543914 21.95428594 0 0 Z " fill="#727571" transform="translate(876,474)"/>
<path d="M0 0 C0.495 0.99 0.495 0.99 1 2 C1.66 2.33 2.32 2.66 3 3 C-9.82912818 17.35640535 -25.8382694 25.68678207 -45 28 C-47 21.25 -47 21.25 -47 19 C-45.02 18.67 -43.04 18.34 -41 18 C-41.99 19.32 -42.98 20.64 -44 22 C-28.18455464 22.68325939 -14.48527259 12.88365659 -3 3 C-1.98678589 2.01339108 -0.98089687 1.01874498 0 0 Z " fill="#ECECEA" transform="translate(799,508)"/>
<path d="M0 0 C0.495 0.99 0.495 0.99 1 2 C1.66 2.33 2.32 2.66 3 3 C-9.30718066 16.41704666 -24.29354291 26.96699157 -43.05078125 27.95703125 C-43.69402344 27.97121094 -44.33726562 27.98539062 -45 28 C-45 27.34 -45 26.68 -45 26 C-42.06193935 23.26884503 -39.51096491 22.49525354 -35.625 21.75 C-24.44407959 19.10475786 -15.23051642 13.99305467 -7.0859375 5.91796875 C-5.10962779 4.10080009 -3.38974843 3.15313189 -1 2 C-0.67 1.34 -0.34 0.68 0 0 Z " fill="#E8E8E6" transform="translate(852,477)"/>
<path d="M0 0 C0.495 1.485 0.495 1.485 1 3 C1.66 3.33 2.32 3.66 3 4 C-7.61371363 17.51882224 -20.86226686 24.78333462 -37 30 C-37 29.01 -37 28.02 -37 27 C-37.66 26.67 -38.32 26.34 -39 26 C-37.92685547 25.70609375 -37.92685547 25.70609375 -36.83203125 25.40625 C-22.01223739 20.95839466 -9.46163778 12.2507827 0 0 Z " fill="#E9E9E7" transform="translate(747,540)"/>
<path d="M0 0 C1.80030122 2.70045182 2.93377066 5.06677881 4.125 8.0625 C4.47820313 8.94035156 4.83140625 9.81820312 5.1953125 10.72265625 C6 13 6 13 6 15 C5.01 15 4.02 15 3 15 C3.37409251 20.15998377 3.37409251 20.15998377 6.0625 24.4375 C6.701875 24.953125 7.34125 25.46875 8 26 C7.01 26.99 6.02 27.98 5 29 C1.3450161 27.82518375 -0.46669101 25.60802374 -2.23828125 22.25390625 C-4.79545348 14.68729918 -3.24924672 7.04003457 0 0 Z " fill="#E1E1E0" transform="translate(853,684)"/>
<path d="M0 0 C2.19545918 2.75533273 3.74148161 5.41974623 5.1875 8.625 C9.43504045 17.27314543 15.48783819 24.0528719 23 30 C20 31 20 31 17.1875 29.875 C9.44959888 25.32329346 4.30085715 20.16481634 1.75 11.5 C1.24726562 9.84484375 1.24726562 9.84484375 0.734375 8.15625 C0.06786958 5.29169479 -0.15265367 2.92222744 0 0 Z " fill="#1C1D1B" transform="translate(568,543)"/>
<path d="M0 0 C2 1 2 1 3.0078125 3.7734375 C3.37648438 4.96195313 3.74515625 6.15046875 4.125 7.375 C6.51401699 14.58829599 10.18418368 20.11187468 15 26 C15.74121094 26.92683594 16.48242188 27.85367188 17.24609375 28.80859375 C17.82488281 29.53175781 18.40367187 30.25492188 19 31 C18.34 31.33 17.68 31.66 17 32 C7.36988653 26.2677896 3.05572036 18.76777652 0 8 C-0.33447581 5.16330643 -0.2800083 2.85608463 0 0 Z " fill="#1E1F1D" transform="translate(578,536)"/>
<path d="M0 0 C4.0322912 1.98077463 6.46698025 3.70754471 8 8 C6.71416016 7.51853516 6.71416016 7.51853516 5.40234375 7.02734375 C-0.51477042 5.2406606 -7.65849958 4.43809345 -13.3984375 7.12109375 C-15.52098668 8.58979232 -15.52098668 8.58979232 -18 11 C-18.66 10.67 -19.32 10.34 -20 10 C-14.63481037 1.25672801 -10.25858894 -1.50419193 0 0 Z " fill="#3A3B39" transform="translate(633,489)"/>
<path d="M0 0 C4.25977514 1.79358953 6.36775641 4.6001352 9.21875 8.125 C11.04045351 10.04258264 12.58046808 10.98124972 15 12 C15 12.66 15 13.32 15 14 C13.68 14 12.36 14 11 14 C10.67 15.32 10.34 16.64 10 18 C8.36525411 16.61559342 6.74254338 15.21696755 5.125 13.8125 C4.22007812 13.03519531 3.31515625 12.25789062 2.3828125 11.45703125 C-0.01688199 8.98259218 -1.11798229 7.30756641 -2 4 C-1.125 1.6875 -1.125 1.6875 0 0 Z " fill="#EDEDEB" transform="translate(580,555)"/>
<path d="M0 0 C3.86478185 4.39785521 7 8.97281595 7 15 C2.02906176 14.58846263 -2.44508386 14.20399168 -7 12 C-6.67 11.34 -6.34 10.68 -6 10 C-4.35 10 -2.7 10 -1 10 C-1.020625 8.72125 -1.04125 7.4425 -1.0625 6.125 C-1.125 2.25 -1.125 2.25 0 0 Z " fill="#EFF1ED" transform="translate(685,805)"/>
<path d="M0 0 C-0.38743873 2.45552385 -0.69594646 3.71075932 -2.5234375 5.44921875 C-3.13445313 5.85785156 -3.74546875 6.26648438 -4.375 6.6875 C-4.98085938 7.10386719 -5.58671875 7.52023437 -6.2109375 7.94921875 C-10.12638247 10.24890149 -13.56670362 10.0836471 -18 10 C-18 9.01 -18 8.02 -18 7 C-15.94414903 5.82006797 -13.88163459 4.65621545 -11.8125 3.5 C-10.08966797 2.52546875 -10.08966797 2.52546875 -8.33203125 1.53125 C-5.14862918 0.06830321 -3.42692535 -0.36140832 0 0 Z " fill="#171B17" transform="translate(875,465)"/>
<path d="M0 0 C2 2 2 2 3.5625 5.5 C5.90345574 10.37848029 9.38163604 13.99433205 13.07421875 17.8984375 C15 20 15 20 16 22 C10.12040629 21.21127402 6.99534659 18.18560119 3 14 C-0.25675521 9.21664078 -0.28964714 5.59984478 0 0 Z " fill="#272927" transform="translate(561,554)"/>
<path d="M0 0 C0.99 1.32 1.98 2.64 3 4 C-4.42725202 8.93893408 -10.00555527 11.31015327 -19 11 C-18.29296875 9.05859375 -18.29296875 9.05859375 -17 7 C-14.86328125 6.34765625 -14.86328125 6.34765625 -12.3125 6.0625 C-6.99428876 5.22115744 -4.12177898 3.40494785 0 0 Z " fill="#E5E5E2" transform="translate(874,468)"/>
<path d="M0 0 C0.66 0.33 1.32 0.66 2 1 C1.67 1.33 1.34 1.66 1 2 C1.66 2.66 2.32 3.32 3 4 C1.10807525 4.98669759 -0.78871978 5.9640602 -2.6875 6.9375 C-3.74324219 7.48277344 -4.79898438 8.02804687 -5.88671875 8.58984375 C-8.66234047 9.8470576 -11.00272126 10.56069569 -14 11 C-14 10.34 -14 9.68 -14 9 C-14.66 8.34 -15.32 7.68 -16 7 C-15.09636719 6.66226563 -14.19273437 6.32453125 -13.26171875 5.9765625 C-12.08222656 5.53054688 -10.90273438 5.08453125 -9.6875 4.625 C-7.92986328 3.96371094 -7.92986328 3.96371094 -6.13671875 3.2890625 C-2.91446407 2.08510352 -2.91446407 2.08510352 0 0 Z " fill="#E4E5E1" transform="translate(781,522)"/>
<path d="M0 0 C0 0.66 0 1.32 0 2 C-0.99 2.33 -1.98 2.66 -3 3 C-1.6696875 3.433125 -1.6696875 3.433125 -0.3125 3.875 C2.50382424 4.83148748 5.25083156 5.86798946 8 7 C7.67 7.66 7.34 8.32 7 9 C6.154375 8.690625 5.30875 8.38125 4.4375 8.0625 C-1.62395059 6.18896073 -7.14339509 5.07169755 -13 8 C-12.68151851 5.02750614 -11.96374181 3.96160897 -9.875 1.75 C-6.3474968 -0.39717586 -4.0589816 -0.3183515 0 0 Z " fill="#DADAD8" transform="translate(610,516)"/>
<path d="M0 0 C0.33 0.99 0.66 1.98 1 3 C0.67 3.33 0.34 3.66 0 4 C0.99 4.33 1.98 4.66 3 5 C3.8125 6.9375 3.8125 6.9375 4 9 C3.34 9.66 2.68 10.32 2 11 C0 10.9375 0 10.9375 -2 10 C-3.25 7.4375 -3.25 7.4375 -4 5 C-4.66 6.98 -5.32 8.96 -6 11 C-6.33 11 -6.66 11 -7 11 C-7.33074549 7.36179956 -7.48805542 5.6226914 -5.1875 2.6875 C-3 1 -3 1 0 0 Z " fill="#DCDCDB" transform="translate(878,650)"/>
<path d="M0 0 C0.33 0 0.66 0 1 0 C1.05407567 2.58361518 1.093707 5.16609255 1.125 7.75 C1.14175781 8.47960937 1.15851562 9.20921875 1.17578125 9.9609375 C1.21072239 13.8044624 1.17499684 16.74606772 -1 20 C-2.65 20 -4.3 20 -6 20 C-5.505 19.13375 -5.01 18.2675 -4.5 17.375 C-2.80539199 14.17768558 -2.80539199 14.17768558 -3 11.125 C-3 6.87654661 -1.61991049 3.91478368 0 0 Z " fill="#EEEEED" transform="translate(648,660)"/>
<path d="M0 0 C0.04939662 3.95096978 0.08571755 7.9018203 0.10986328 11.85302734 C0.12488107 13.8591136 0.15028981 15.86511324 0.17578125 17.87109375 C0.18222656 19.12792969 0.18867187 20.38476562 0.1953125 21.6796875 C0.20578613 22.84226074 0.21625977 24.00483398 0.22705078 25.20263672 C0 28 0 28 -2 30 C-2.33 20.43 -2.66 10.86 -3 1 C-1 0 -1 0 0 0 Z " fill="#020604" transform="translate(883,462)"/>
<path d="M0 0 C1.75094115 2.62641172 2.45274638 4.10691211 3.1875 7.0625 C3.36667969 7.75472656 3.54585937 8.44695313 3.73046875 9.16015625 C4 11 4 11 3 13 C1.68 13 0.36 13 -1 13 C-1 14.65 -1 16.3 -1 18 C-1.33 18 -1.66 18 -2 18 C-2.054138 15.75026553 -2.09285491 13.50015617 -2.125 11.25 C-2.14820313 9.99703125 -2.17140625 8.7440625 -2.1953125 7.453125 C-2.01537302 4.27179508 -1.68998582 2.63478104 0 0 Z " fill="#EAEAE9" transform="translate(853,684)"/>
<path d="M0 0 C1.32 1.32 2.64 2.64 4 4 C3 6 2 8 1 10 C-0.32 10 -1.64 10 -3 10 C-3.33 10.99 -3.66 11.98 -4 13 C-5.32 12.67 -6.64 12.34 -8 12 C-5.36 8.04 -2.72 4.08 0 0 Z " fill="#ECECEA" transform="translate(672,536)"/>
<path d="M0 0 C2.19921875 -0.34375 2.19921875 -0.34375 5 0 C7.45703125 2.40625 7.45703125 2.40625 9.8125 5.5 C10.99779297 7.03140625 10.99779297 7.03140625 12.20703125 8.59375 C12.79871094 9.3878125 13.39039063 10.181875 14 11 C13.01 11.495 13.01 11.495 12 12 C6.58627581 8.90644332 3.50222763 5.11672973 0 0 Z " fill="#1B1D1B" transform="translate(583,556)"/>
<path d="M0 0 C1.17539996 0.92652701 2.34010577 1.86663387 3.5 2.8125 C4.1496875 3.33457031 4.799375 3.85664062 5.46875 4.39453125 C7 6 7 6 7 9 C5.35 8.67 3.7 8.34 2 8 C2.66 8.33 3.32 8.66 4 9 C3.67 9.99 3.34 10.98 3 12 C1.02 10.35 -0.96 8.7 -3 7 C-2.34 6.34 -1.68 5.68 -1 5 C-0.35232207 2.42938689 -0.35232207 2.42938689 0 0 Z " fill="#ECECE9" transform="translate(574,563)"/>
<path d="M0 0 C0.79148437 -0.02578125 1.58296875 -0.0515625 2.3984375 -0.078125 C5.09524878 0.31929982 5.93229015 1.17506535 7.625 3.25 C4.98041621 4.57229189 2.94738699 4.34677194 0 4.3125 C-1.00289062 4.30347656 -2.00578125 4.29445313 -3.0390625 4.28515625 C-3.80992187 4.27355469 -4.58078125 4.26195312 -5.375 4.25 C-5.375 -0.33111879 -4.15539994 0.08068738 0 0 Z " fill="#090C0A" transform="translate(628.375,488.75)"/>
<path d="M0 0 C0 2.1875 0 2.1875 -1 5 C-3.50803179 6.96188534 -6.19641043 8.49921743 -9 10 C-9.33 9.01 -9.66 8.02 -10 7 C-3.18421053 0 -3.18421053 0 0 0 Z " fill="#F2F1EF" transform="translate(685,593)"/>
<path d="M0 0 C2.954889 3.5458668 5.45934985 7.63781033 7 12 C6.67 12.99 6.34 13.98 6 15 C5.01 15 4.02 15 3 15 C2.491217 13.44033782 1.99336531 11.87710759 1.5 10.3125 C1.2215625 9.44238281 0.943125 8.57226562 0.65625 7.67578125 C0.00149195 5.00608323 -0.11831495 2.73603316 0 0 Z " fill="#131512" transform="translate(568,543)"/>
<path d="M0 0 C1.98 0.495 1.98 0.495 4 1 C3.34 4.96 2.68 8.92 2 13 C1.01 13 0.02 13 -1 13 C-0.67 8.71 -0.34 4.42 0 0 Z " fill="#E0E1DF" transform="translate(541,777)"/>
<path d="M0 0 C1.9375 0.8125 1.9375 0.8125 4 2 C4.33 2.99 4.66 3.98 5 5 C3.25 8.1875 3.25 8.1875 1 11 C0.01 11 -0.98 11 -2 11 C-1.67 10.484375 -1.34 9.96875 -1 9.4375 C0.32010877 6.21973488 0.13242105 3.4429472 0 0 Z " fill="#DFDFDD" transform="translate(616,710)"/>
<path d="M0 0 C0.66 0.66 1.32 1.32 2 2 C3.32 2.66 4.64 3.32 6 4 C3.36 5.98 0.72 7.96 -2 10 C-3.39195915 5.82412255 -1.82323219 3.86525224 0 0 Z " fill="#191B19" transform="translate(646,587)"/>
<path d="M0 0 C1.98 0 3.96 0 6 0 C6.33 1.65 6.66 3.3 7 5 C4.36 5 1.72 5 -1 5 C-0.67 3.35 -0.34 1.7 0 0 Z " fill="#E1E1E0" transform="translate(626,484)"/>
<path d="M0 0 C1.32 0 2.64 0 4 0 C4 2.97 4 5.94 4 9 C3.34 9 2.68 9 2 9 C2 11.31 2 13.62 2 16 C1.67 16 1.34 16 1 16 C0.67 10.72 0.34 5.44 0 0 Z " fill="#333632" transform="translate(702,464)"/>
<path d="M0 0 C0.99 0.33 1.98 0.66 3 1 C2.01 1.495 2.01 1.495 1 2 C0.5978125 3.2065625 0.5978125 3.2065625 0.1875 4.4375 C-1 7 -1 7 -3.625 8.3125 C-4.40875 8.539375 -5.1925 8.76625 -6 9 C-5.70381606 5.44579276 -5.19662957 4.19662957 -2.625 1.625 C-1.325625 0.820625 -1.325625 0.820625 0 0 Z " fill="#EEEEEC" transform="translate(842,486)"/>
<path d="M0 0 C3.07563891 1.53781946 3.70322574 3.91244223 5 7 C4.67 7.99 4.34 8.98 4 10 C1 9 1 9 -1 6 C-0.625 2.8125 -0.625 2.8125 0 0 Z " fill="#131413" transform="translate(582,547)"/>
<path d="M0 0 C0.93423645 3.01031744 1.04449911 3.86650268 0 7 C-1.98 7 -3.96 7 -6 7 C-4.60667426 3.63279613 -3.0210714 2.0140476 0 0 Z " fill="#161816" transform="translate(708,560)"/>
<path d="M0 0 C0 6.6 0 13.2 0 20 C-0.33 20 -0.66 20 -1 20 C-1 15.38 -1 10.76 -1 6 C-1.66 6 -2.32 6 -3 6 C-3 4.35 -3 2.7 -3 1 C-1 0 -1 0 0 0 Z " fill="#0D100E" transform="translate(883,462)"/>
<path d="M0 0 C0.33 0.66 0.66 1.32 1 2 C-0.04442707 5.13328122 -0.44604681 6.04196922 -3 8 C-5.30988315 8.74386068 -7.64315944 9.42190703 -10 10 C-10.33 9.34 -10.66 8.68 -11 8 C-10.18595703 7.51080078 -10.18595703 7.51080078 -9.35546875 7.01171875 C-8.28232422 6.35623047 -8.28232422 6.35623047 -7.1875 5.6875 C-6.47980469 5.25824219 -5.77210938 4.82898438 -5.04296875 4.38671875 C-3.11039769 3.07493533 -1.58589388 1.70596155 0 0 Z " fill="#171816" transform="translate(556,787)"/>
<path d="M0 0 C0.99 0.33 1.98 0.66 3 1 C4.1875 3.5625 4.1875 3.5625 5 6 C2.69 5.67 0.38 5.34 -2 5 C-2.33 4.01 -2.66 3.02 -3 2 C-2.01 1.34 -1.02 0.68 0 0 Z M5 4 C8 5 8 5 8 5 Z " fill="#EEEEEC" transform="translate(655,599)"/>
<path d="M0 0 C3.82097239 0.53069061 6.06171403 1.49701566 9 4 C8.34 4 7.68 4 7 4 C7.33 5.32 7.66 6.64 8 8 C3.79373966 6.49776416 2.26099979 3.71449966 0 0 Z " fill="#252623" transform="translate(606,521)"/>
<path d="M0 0 C2.0625 0.4375 2.0625 0.4375 4 1 C3.6875 2.875 3.6875 2.875 3 5 C2.01 5.66 1.02 6.32 0 7 C-0.66 6.34 -1.32 5.68 -2 5 C-1.46428571 1.46428571 -1.46428571 1.46428571 0 0 Z " fill="#212120" transform="translate(667,486)"/>
<path d="M0 0 C0.99 0.33 1.98 0.66 3 1 C-0.14378706 5.52705337 -3.16008937 7.58004469 -8 10 C-8.66 10 -9.32 10 -10 10 C-10 9.34 -10 8.68 -10 8 C-3.25 4 -3.25 4 -1 4 C-0.67 2.68 -0.34 1.36 0 0 Z " fill="#161917" transform="translate(522,561)"/>
<path d="M0 0 C2.29576678 2.29576678 3.0638375 3.90346249 4 7 C3.625 9.8125 3.625 9.8125 3 12 C1 11 1 11 0 8 C-0.12781786 5.32605036 -0.04391871 2.67904143 0 0 Z " fill="#21221F" transform="translate(561,554)"/>
<path d="M0 0 C1.65 0 3.3 0 5 0 C5.1875 3.375 5.1875 3.375 5 7 C4.01 7.66 3.02 8.32 2 9 C1.34 6.03 0.68 3.06 0 0 Z " fill="#E6E7E5" transform="translate(522,528)"/>
<path d="M0 0 C0.33 0 0.66 0 1 0 C1.66 2.97 2.32 5.94 3 9 C2.01 9.66 1.02 10.32 0 11 C-1.76062164 7.67438135 -2.10784228 6.40826005 -1.125 2.6875 C-0.568125 1.3571875 -0.568125 1.3571875 0 0 Z " fill="#ECEDEB" transform="translate(874,654)"/>
<path d="M0 0 C2.475 0.495 2.475 0.495 5 1 C5.12375 1.61875 5.2475 2.2375 5.375 2.875 C5.87197356 5.19120832 5.87197356 5.19120832 8 7 C7.67 7.99 7.34 8.98 7 10 C4.3513141 6.80331012 2.06007659 3.60513403 0 0 Z " fill="#1D1D1C" transform="translate(635,631)"/>
<path d="M0 0 C1.31611677 0.95336021 2.62778961 1.91285774 3.9375 2.875 C4.66839844 3.40867187 5.39929688 3.94234375 6.15234375 4.4921875 C8 6 8 6 9 8 C3.56603774 7.39622642 3.56603774 7.39622642 1.125 5.6875 C0 4 0 4 0 0 Z " fill="#343432" transform="translate(582,566)"/>
<path d="M0 0 C-0.9075 0.598125 -1.815 1.19625 -2.75 1.8125 C-5.22901481 3.48106766 -7.63317911 5.17936855 -10 7 C-10.99 6.34 -11.98 5.68 -13 5 C-11.40377344 3.96679519 -9.79770894 2.94877571 -8.1875 1.9375 C-7.29417969 1.36902344 -6.40085937 0.80054688 -5.48046875 0.21484375 C-3 -1 -3 -1 0 0 Z " fill="#E4E4E2" transform="translate(601,487)"/>
<path d="M0 0 C-0.57234375 0.26554688 -1.1446875 0.53109375 -1.734375 0.8046875 C-4.1076012 2.05676891 -6.12213286 3.4936352 -8.25 5.125 C-8.95640625 5.66382813 -9.6628125 6.20265625 -10.390625 6.7578125 C-10.92171875 7.16773438 -11.4528125 7.57765625 -12 8 C-11.40864718 4.97329097 -11.05675039 4.05837183 -8.8125 1.75 C-5.56588078 -0.27011863 -3.75257718 -0.34907695 0 0 Z " fill="#3A3A39" transform="translate(609,516)"/>
<path d="M0 0 C0.99 0.99 1.98 1.98 3 3 C3.66 2.67 4.32 2.34 5 2 C5 3.98 5 5.96 5 8 C2.36 6.02 -0.28 4.04 -3 2 C-2.01 1.34 -1.02 0.68 0 0 Z " fill="#DEE0DD" transform="translate(664,804)"/>
<path d="M0 0 C1.65 0 3.3 0 5 0 C5 1.32 5 2.64 5 4 C3.68 4.33 2.36 4.66 1 5 C0.67 3.35 0.34 1.7 0 0 Z " fill="#171917" transform="translate(876,656)"/>
<path d="M0 0 C0.33 0.66 0.66 1.32 1 2 C-1.625 5.875 -1.625 5.875 -5 7 C-5.515625 7.515625 -6.03125 8.03125 -6.5625 8.5625 C-7.2740625 9.2740625 -7.2740625 9.2740625 -8 10 C-8.66 10 -9.32 10 -10 10 C-10 9.34 -10 8.68 -10 8 C-8.06640625 6.30859375 -8.06640625 6.30859375 -5.5625 4.4375 C-2.67307373 2.34532911 -2.67307373 2.34532911 0 0 Z " fill="#EAEAE9" transform="translate(654,588)"/>
<path d="M0 0 C1.32 0.33 2.64 0.66 4 1 C-0.455 3.97 -0.455 3.97 -5 7 C-5.66 6.67 -6.32 6.34 -7 6 C-5.75 4 -5.75 4 -4 2 C-2.68 2 -1.36 2 0 2 C0 1.34 0 0.68 0 0 Z " fill="#E2E3DF" transform="translate(726,545)"/>
<path d="M0 0 C-0.33 1.32 -0.66 2.64 -1 4 C-1.66 3.67 -2.32 3.34 -3 3 C-3.33 3.99 -3.66 4.98 -4 6 C-5.32 6 -6.64 6 -8 6 C-8.33 6.66 -8.66 7.32 -9 8 C-9 7.01 -9 6.02 -9 5 C-7.5390625 3.61328125 -7.5390625 3.61328125 -5.625 2.3125 C-4.68527344 1.65701172 -4.68527344 1.65701172 -3.7265625 0.98828125 C-2 0 -2 0 0 0 Z " fill="#1A1C1A" transform="translate(793,520)"/>
<path d="M0 0 C0.99 0.33 1.98 0.66 3 1 C0.79020692 3.81939117 -1.40062046 6.53058944 -4 9 C-5 6 -5 6 -4 3 C-3.01 2.67 -2.02 2.34 -1 2 C-0.67 1.34 -0.34 0.68 0 0 Z " fill="#181B19" transform="translate(648,725)"/>
<path d="M0 0 C-0.66 1.32 -1.32 2.64 -2 4 C-2.99 4 -3.98 4 -5 4 C-5 4.66 -5 5.32 -5 6 C-5.66 6 -6.32 6 -7 6 C-7.33 6.66 -7.66 7.32 -8 8 C-8.66 7.01 -9.32 6.02 -10 5 C-8.71186658 4.16121545 -7.41936744 3.32913217 -6.125 2.5 C-5.40570312 2.0359375 -4.68640625 1.571875 -3.9453125 1.09375 C-2 0 -2 0 0 0 Z " fill="#181918" transform="translate(844,491)"/>
<path d="M0 0 C0.33 0.99 0.66 1.98 1 3 C-1.97 5.475 -1.97 5.475 -5 8 C-5.66 7.67 -6.32 7.34 -7 7 C-5.54744301 3.17053157 -3.57104439 1.87949705 0 0 Z " fill="#1F211E" transform="translate(620,492)"/>
<path d="M0 0 C0.33 0.66 0.66 1.32 1 2 C1.66 2.33 2.32 2.66 3 3 C0.69 4.98 -1.62 6.96 -4 9 C-3.46930939 5.17902761 -2.50298434 2.93828597 0 0 Z " fill="#ECECEA" transform="translate(852,477)"/>
<path d="M0 0 C2.64 0.33 5.28 0.66 8 1 C4.79663178 3.83374881 2.21912747 4.5205537 -2 5 C-2 4.34 -2 3.68 -2 3 C-1.34 3 -0.68 3 0 3 C0 2.01 0 1.02 0 0 Z " fill="#212220" transform="translate(847,464)"/>
<path d="M0 0 C1.98 0.66 3.96 1.32 6 2 C5.67 2.99 5.34 3.98 5 5 C3.68 5 2.36 5 1 5 C1 6.65 1 8.3 1 10 C0.67 10 0.34 10 0 10 C0 6.7 0 3.4 0 0 Z " fill="#F9FAF8" transform="translate(851,692)"/>
<path d="M0 0 C0.33 0 0.66 0 1 0 C1 2.64 1 5.28 1 8 C-1.475 7.01 -1.475 7.01 -4 6 C-1.125 1.125 -1.125 1.125 0 0 Z " fill="#ECEDEB" transform="translate(885,654)"/>
<path d="M0 0 C0.99 0 1.98 0 3 0 C1.60667426 3.36720387 0.0210714 4.9859524 -3 7 C-3.33 5.35 -3.66 3.7 -4 2 C-3.01 2.33 -2.02 2.66 -1 3 C-0.67 2.01 -0.34 1.02 0 0 Z " fill="#EAE8E7" transform="translate(665,559)"/>
<path d="M0 0 C1.7074998 1.28062485 3.37373596 2.61767557 5 4 C5 4.66 5 5.32 5 6 C2.03 5.01 -0.94 4.02 -4 3 C-2.68 2.01 -1.36 1.02 0 0 Z " fill="#242523" transform="translate(636,491)"/>
<path d="M0 0 C1.32 0.66 2.64 1.32 4 2 C3.34 3.32 2.68 4.64 2 6 C0.68 5.34 -0.64 4.68 -2 4 C-1.34 2.68 -0.68 1.36 0 0 Z " fill="#F8F7F6" transform="translate(580,555)"/>
<path d="M0 0 C2.66666667 2.66666667 5.33333333 5.33333333 8 8 C6.35 7.67 4.7 7.34 3 7 C3 6.34 3 5.68 3 5 C1.68 4.67 0.36 4.34 -1 4 C-0.67 2.68 -0.34 1.36 0 0 Z " fill="#E6E6E5" transform="translate(612,529)"/>
<path d="M0 0 C2.7972908 2.06756277 3.02692273 3.14440371 3.6875 6.6875 C3.790625 7.780625 3.89375 8.87375 4 10 C3.34 10 2.68 10 2 10 C2 9.01 2 8.02 2 7 C1.34 7 0.68 7 0 7 C0 4.69 0 2.38 0 0 Z " fill="#151617" transform="translate(521,529)"/>
<path d="M0 0 C1.21816406 0.03480469 1.21816406 0.03480469 2.4609375 0.0703125 C3.68683594 0.09738281 3.68683594 0.09738281 4.9375 0.125 C5.87722656 0.15980469 5.87722656 0.15980469 6.8359375 0.1953125 C6.8359375 0.5253125 6.8359375 0.8553125 6.8359375 1.1953125 C5.7634375 1.4634375 4.6909375 1.7315625 3.5859375 2.0078125 C0.27084822 3.05759077 -1.60283896 3.94143578 -4.1640625 6.1953125 C-4.1640625 0.37581792 -4.1640625 0.37581792 0 0 Z " fill="#E6E6E5" transform="translate(601.1640625,514.8046875)"/>
<path d="M0 0 C1.2065625 0.0309375 1.2065625 0.0309375 2.4375 0.0625 C2.4375 1.3825 2.4375 2.7025 2.4375 4.0625 C0.4575 4.0625 -1.5225 4.0625 -3.5625 4.0625 C-3.5625 0.08689024 -3.5625 0.08689024 0 0 Z " fill="#030604" transform="translate(626.5625,488.9375)"/>
<path d="M0 0 C2.97 0 5.94 0 9 0 C7.02 0.99 7.02 0.99 5 2 C5.33 2.66 5.66 3.32 6 4 C3.69 3.34 1.38 2.68 -1 2 C-0.67 1.34 -0.34 0.68 0 0 Z " fill="#DFE2DE" transform="translate(679,815)"/>
<path d="M0 0 C-0.33 0.99 -0.66 1.98 -1 3 C-1.99 3.33 -2.98 3.66 -4 4 C-4.66 4.66 -5.32 5.32 -6 6 C-6.66 4.35 -7.32 2.7 -8 1 C-2.25 0 -2.25 0 0 0 Z " fill="#1E201C" transform="translate(669,605)"/>
<path d="M0 0 C0.66 0.33 1.32 0.66 2 1 C1.34 2.32 0.68 3.64 0 5 C-0.99 4.67 -1.98 4.34 -3 4 C-3 4.66 -3 5.32 -3 6 C-3.66 6 -4.32 6 -5 6 C-5.33 6.66 -5.66 7.32 -6 8 C-5.65120368 4.74456771 -4.97866739 3.98126893 -2.4375 1.75 C-1.633125 1.1725 -0.82875 0.595 0 0 Z " fill="#F1F1EF" transform="translate(692,585)"/>
<path d="M0 0 C1.65 0 3.3 0 5 0 C5.33 1.32 5.66 2.64 6 4 C3.36 4 0.72 4 -2 4 C-1.34 2.68 -0.68 1.36 0 0 Z " fill="#CACAC8" transform="translate(857,475)"/>
<path d="M0 0 C2.97 0.33 5.94 0.66 9 1 C9 1.33 9 1.66 9 2 C5.7 2.66 2.4 3.32 -1 4 C-0.67 2.68 -0.34 1.36 0 0 Z " fill="#222521" transform="translate(641,464)"/>
<path d="M0 0 C0 0.99 0 1.98 0 3 C-1.75 4.60546875 -1.75 4.60546875 -4 6.1875 C-4.7425 6.71730469 -5.485 7.24710938 -6.25 7.79296875 C-6.8275 8.19128906 -7.405 8.58960938 -8 9 C-7.67 7.68 -7.34 6.36 -7 5 C-6.34 5 -5.68 5 -5 5 C-5 4.34 -5 3.68 -5 3 C-2.5 1.375 -2.5 1.375 0 0 Z " fill="#252726" transform="translate(505,573)"/>
<path d="M0 0 C0.66 0.33 1.32 0.66 2 1 C1.67 1.99 1.34 2.98 1 4 C-0.33333333 4.33333333 -1.66666667 4.66666667 -3 5 C-3.33 5.99 -3.66 6.98 -4 8 C-4.66 7.67 -5.32 7.34 -6 7 C-2.25 1.125 -2.25 1.125 0 0 Z " fill="#1B1C1B" transform="translate(693,518)"/>
<path d="M0 0 C1.32 0 2.64 0 4 0 C3.67 1.65 3.34 3.3 3 5 C2.01 5 1.02 5 0 5 C-0.5625 3.0625 -0.5625 3.0625 -1 1 C-0.67 0.67 -0.34 0.34 0 0 Z " fill="#252924" transform="translate(795,504)"/>
<path d="M0 0 C2.97 0.495 2.97 0.495 6 1 C6 2.65 6 4.3 6 6 C2.26360784 4.75453595 1.81243487 3.36595047 0 0 Z " fill="#E3E6E2" transform="translate(648,790)"/>
<path d="M0 0 C0.99 0.33 1.98 0.66 3 1 C2.236875 1.5775 1.47375 2.155 0.6875 2.75 C-1.66200917 4.71703093 -3.29323505 6.48476744 -5 9 C-5 5 -5 5 -2.5 2.25 C-1.675 1.5075 -0.85 0.765 0 0 Z " fill="#131513" transform="translate(692,590)"/>
<path d="M0 0 C1.65 1.65 3.3 3.3 5 5 C4.01 5.495 4.01 5.495 3 6 C0.375 4.5625 0.375 4.5625 -2 3 C-1.34 2.01 -0.68 1.02 0 0 Z " fill="#373835" transform="translate(592,562)"/>
<path d="M0 0 C0.33 0.99 0.66 1.98 1 3 C-2.96 4.98 -2.96 4.98 -7 7 C-5.84933177 3.5479953 -4.01648928 0 0 0 Z " fill="#1E1F1E" transform="translate(730,531)"/>
<path d="M0 0 C0.33 0.66 0.66 1.32 1 2 C3.02463255 2.65213292 3.02463255 2.65213292 5 3 C2.69 3.66 0.38 4.32 -2 5 C-2 4.34 -2 3.68 -2 3 C-2.66 2.34 -3.32 1.68 -4 1 C-2.68 0.67 -1.36 0.34 0 0 Z " fill="#DCDDDA" transform="translate(769,528)"/>
<path d="M0 0 C-1.485 1.485 -1.485 1.485 -3 3 C-2.01 3.66 -1.02 4.32 0 5 C-1.65 5 -3.3 5 -5 5 C-5.33 3.35 -5.66 1.7 -6 0 C-3 -1 -3 -1 0 0 Z " fill="#E4E5E0" transform="translate(758,527)"/>
<path d="M0 0 C-2.31 1.65 -4.62 3.3 -7 5 C-7 3.35 -7 1.7 -7 0 C-3.98968256 -0.93423645 -3.13349732 -1.04449911 0 0 Z " fill="#EDEDEB" transform="translate(693,571)"/>
<path d="M0 0 C1.65 1.65 3.3 3.3 5 5 C1.31245243 4.50168276 -0.60490662 3.89932357 -3 1 C-2.01 0.67 -1.02 0.34 0 0 Z " fill="#393A38" transform="translate(572,571)"/>
<path d="M0 0 C0.66 0 1.32 0 2 0 C2 0.66 2 1.32 2 2 C3.65 2.33 5.3 2.66 7 3 C7 3.66 7 4.32 7 5 C4.625 4.75 4.625 4.75 2 4 C0.6875 1.9375 0.6875 1.9375 0 0 Z " fill="#191917" transform="translate(565,567)"/>
<path d="M0 0 C1.32 0.33 2.64 0.66 4 1 C4 2.32 4 3.64 4 5 C4.66 5.33 5.32 5.66 6 6 C4.35 5.67 2.7 5.34 1 5 C0.67 3.35 0.34 1.7 0 0 Z " fill="#11120F" transform="translate(578,564)"/>
<path d="M0 0 C0 1.32 0 2.64 0 4 C-1.65 4.66 -3.3 5.32 -5 6 C-4.625 3.5625 -4.625 3.5625 -4 1 C-2 0 -2 0 0 0 Z " fill="#E2E2DF" transform="translate(725,560)"/>
<path d="M0 0 C1.98 0.99 1.98 0.99 4 2 C3.34 3.98 2.68 5.96 2 8 C1.34 8 0.68 8 0 8 C0 5.36 0 2.72 0 0 Z " fill="#1A1C1B" transform="translate(526,548)"/>
<path d="M0 0 C3 4 3 4 4 7 C3.01 7.99 2.02 8.98 1 10 C0.67 6.7 0.34 3.4 0 0 Z " fill="#252422" transform="translate(568,543)"/>
<path d="M0 0 C-0.66 1.32 -1.32 2.64 -2 4 C-3.32 2.68 -4.64 1.36 -6 0 C-3.50907189 -1.24546405 -2.58919267 -0.7767578 0 0 Z " fill="#292C28" transform="translate(749,536)"/>
<path d="M0 0 C-0.33 1.32 -0.66 2.64 -1 4 C-2.65 4 -4.3 4 -6 4 C-5.67 3.01 -5.34 2.02 -5 1 C-3 0 -3 0 0 0 Z " fill="#ECECE9" transform="translate(776,526)"/>
<path d="M0 0 C7.42857143 -0.28571429 7.42857143 -0.28571429 11 2 C9.741875 2.185625 8.48375 2.37125 7.1875 2.5625 C6.12595703 2.71912109 6.12595703 2.71912109 5.04296875 2.87890625 C3 3 3 3 0 2 C0 1.34 0 0.68 0 0 Z " fill="#D3D5D4" transform="translate(656,604)"/>
<path d="M0 0 C0.66 0.33 1.32 0.66 2 1 C0.515 3.475 0.515 3.475 -1 6 C-1.99 5.67 -2.98 5.34 -4 5 C-3.34 5 -2.68 5 -2 5 C-2 4.34 -2 3.68 -2 3 C-2.99 2.67 -3.98 2.34 -5 2 C-2.625 0.9375 -2.625 0.9375 0 0 Z " fill="#E6E6E5" transform="translate(675,598)"/>
<path d="M0 0 C0.66 0.33 1.32 0.66 2 1 C1.67 1.99 1.34 2.98 1 4 C0.34 4 -0.32 4 -1 4 C-1.33 4.66 -1.66 5.32 -2 6 C-2.99 5.34 -3.98 4.68 -5 4 C-3.35 2.68 -1.7 1.36 0 0 Z " fill="#1A1D1B" transform="translate(682,579)"/>
<path d="M0 0 C0.66 0.66 1.32 1.32 2 2 C2.99 2 3.98 2 5 2 C4.67 2.99 4.34 3.98 4 5 C1.9375 5.6875 1.9375 5.6875 0 6 C0 4.02 0 2.04 0 0 Z " fill="#F7F7F5" transform="translate(586,564)"/>
<path d="M0 0 C-1.32 0.99 -2.64 1.98 -4 3 C-4.66 2.67 -5.32 2.34 -6 2 C-6.33 2.66 -6.66 3.32 -7 4 C-7.33 3.01 -7.66 2.02 -8 1 C-3.375 -1.125 -3.375 -1.125 0 0 Z " fill="#1D1E1D" transform="translate(831,500)"/>
<path d="M0 0 C3 2 3 2 4 4 C1.69 4 -0.62 4 -3 4 C-3 3.34 -3 2.68 -3 2 C-2.01 1.34 -1.02 0.68 0 0 Z " fill="#2D2F2D" transform="translate(807,497)"/>
</svg>
